<?xml version="1.0" encoding="utf-8"?>
<!-- Generator: Adobe Illustrator 20.1.0, SVG Export Plug-In . SVG Version: 6.00 Build 0)  -->
<!DOCTYPE svg PUBLIC "-//W3C//DTD SVG 1.1//EN" "http://www.w3.org/Graphics/SVG/1.1/DTD/svg11.dtd">
<svg version="1.1" id="Layer_1" xmlns="http://www.w3.org/2000/svg" xmlns:xlink="http://www.w3.org/1999/xlink" x="0px" y="0px"
	 viewBox="0 0 369.2 223.1" style="enable-background:new 0 0 369.2 223.1;" xml:space="preserve">
<style type="text/css">
	.st0{fill:#FFFFFF;}
	.st1{fill:#8F8F8F;}
</style>
<g>
	<path class="st0" d="M69.7,133.5h-8.4V121c-4.7,9.1-14,14.2-24.8,14.2c-19.8,0-31.5-15.3-31.5-32c0-17.8,13-32.1,31.5-32.1
		c13,0,21.9,7.6,24.8,14.4V72.8h8.4V133.5z M13.2,103.3c0.1,10.9,7.7,24.2,24.4,24.2c10.7,0,18.6-6.2,21.9-14.8c1.4-2.9,2-6.3,2-9.6
		c0.1-3.4-0.6-6.8-1.9-9.7C56.2,85,48.1,78.8,37.4,78.8C23.4,78.8,13.2,89.6,13.2,103.3C13.2,103.2,13.2,103.3,13.2,103.3z"/>
	<path class="st0" d="M93.1,79.5h-12v-6.7h12V50h8.2v22.8h13.3v6.7h-13.3v54.1h-8.2V79.5z"/>
	<path class="st0" d="M126.2,72.8h7.9v9.6c3.8-7.7,12.3-11.3,19.2-11.3c6.3,0,12.3,2,16.6,6.9c1.6,1.6,3.6,5.6,4,6.3
		c0.9-1.7,2.1-4.1,4.4-6.4c4-4.2,9.9-6.8,16.7-6.8c6.2,0,12.2,1.8,16.4,6.1c5.3,5.3,6.9,11.9,6.9,22.6v33.7h-8.4v-33.4
		c0-6.4-1-12.2-4.5-16.1c-2.5-3.2-6.3-5.1-12.1-5.1c-5.3,0-10.5,2.1-13.3,6.3c-3,4.3-3.6,7.7-3.6,14.6v33.7H168V99.8
		c0.2-6.8-0.8-10.7-3.2-14.4c-2.8-4-7.1-6.3-13.3-6.4c-5.6-0.2-10.4,2.6-12.9,6.2c-2.6,3.5-4.1,8.1-4.1,14.6v33.9h-8.4L126.2,72.8
		L126.2,72.8z"/>
	<path class="st0" d="M354.2,88c0-6.4-4.3-10-10.4-10c-6.7,0-10.7,4.5-10.5,9.8c0.2,5.8,4.6,8.1,12,10.3c8.7,2.4,18.4,4.9,18.8,17.8
		c0.5,11.2-8.6,19.3-20.1,19.3c-9.8,0-20.7-6.2-20.8-19h8.2c0.3,8.4,6.5,12.1,12.6,12.1c7,0,11.9-5.2,11.7-11.4
		c-0.2-6.9-4.7-9.7-15.2-12.8c-8.7-2.6-15.5-6.1-15.7-15.7c0-10.9,8.7-17.4,19-17.4c8.5,0,17.9,4.6,18.5,16.9L354.2,88L354.2,88z"/>
	<path class="st1" d="M272,54c-11,0-21.1,4.2-28.6,11.2c6.9-5,15.4-7.9,24.6-7.9c23.4,0,42.3,18.9,42.3,42.3
		c0,12.3-5.3,23.4-13.7,31.1c10.7-7.7,17.7-20.2,17.7-34.4C314.3,72.9,295.3,54,272,54z"/>
	<path class="st1" d="M233.7,103.1c0-20.3,16.4-36.7,36.7-36.7c16.7,0,30.8,11.2,35.3,26.4c-3.2-17.9-18.8-31.6-37.7-31.6
		c-20.6,0-37.4,16.3-38.3,36.7c0.4,10.5,4.6,20,11.3,27.2C236.4,119,233.7,111.4,233.7,103.1z"/>
	<path class="st1" d="M270.4,71.1c-19.5,0-32.2,15-32.2,31.9v0.1c0,17,12.6,31.9,32.2,31.9s32.3-14.9,32.3-31.9S290,71.1,270.4,71.1
		z M270.4,127.4c-13.4,0-23.9-10.4-23.9-24.2v-0.1c0-13.9,10.5-24.3,23.9-24.3c13.5,0,23.9,10.4,23.9,24.3S283.9,127.4,270.4,127.4z
		"/>
</g>
<g>
	<path class="st0" d="M178.1,153.8c-1-1.5-2.4-2.2-4.3-2.2c-0.6,0-1.2,0.1-1.7,0.2c-0.6,0.2-1.1,0.4-1.5,0.7
		c-0.5,0.3-0.8,0.8-1.1,1.3s-0.4,1.1-0.4,1.8c0,1,0.3,1.8,0.9,2.4c0.6,0.6,1.3,1,2.1,1.4s1.8,0.7,2.8,1s1.9,0.7,2.8,1.1
		c0.8,0.5,1.6,1.1,2.1,1.9c0.6,0.8,0.9,1.8,0.9,3.2c0,1-0.2,1.9-0.6,2.7c-0.4,0.8-1,1.5-1.7,2c-0.7,0.6-1.5,1-2.4,1.3
		s-1.8,0.4-2.6,0.4c-1.4,0-2.7-0.3-3.9-0.8s-2.3-1.4-3.2-2.6l2.1-1.5c0.5,0.8,1.2,1.5,2,2s1.9,0.7,3.1,0.7c0.6,0,1.1-0.1,1.7-0.3
		c0.6-0.2,1.1-0.4,1.5-0.8c0.5-0.3,0.8-0.8,1.1-1.3s0.4-1.1,0.4-1.7c0-0.8-0.2-1.4-0.5-2c-0.3-0.5-0.8-1-1.3-1.3s-1.2-0.6-1.8-0.9
		c-0.7-0.2-1.4-0.5-2.1-0.7c-0.7-0.2-1.4-0.5-2.1-0.8c-0.7-0.3-1.3-0.7-1.8-1.1c-0.5-0.5-1-1-1.3-1.7s-0.5-1.5-0.5-2.6
		s0.2-2,0.6-2.8c0.4-0.8,1-1.5,1.6-2c0.7-0.5,1.5-0.9,2.3-1.2c0.9-0.3,1.8-0.4,2.7-0.4c1.3,0,2.4,0.2,3.5,0.6c1,0.4,2,1.1,2.9,2.1
		L178.1,153.8z"/>
	<path class="st0" d="M209.1,172.5h-2.3v-9.7l-8.4-12.8h2.9l6.7,10.6l6.7-10.6h2.9l-8.4,12.8L209.1,172.5L209.1,172.5z"/>
	<path class="st0" d="M247.6,153.8c-1-1.5-2.4-2.2-4.3-2.2c-0.6,0-1.2,0.1-1.7,0.2s-1.1,0.4-1.5,0.7c-0.5,0.3-0.8,0.8-1.1,1.3
		s-0.4,1.1-0.4,1.8c0,1,0.3,1.8,0.9,2.4s1.3,1,2.1,1.4s1.8,0.7,2.8,1s1.9,0.7,2.8,1.1c0.8,0.5,1.6,1.1,2.1,1.9
		c0.6,0.8,0.9,1.8,0.9,3.2c0,1-0.2,1.9-0.7,2.7c-0.4,0.8-1,1.5-1.7,2c-0.7,0.6-1.5,1-2.4,1.3s-1.8,0.4-2.6,0.4
		c-1.4,0-2.7-0.3-3.9-0.8s-2.3-1.4-3.2-2.6l2.1-1.5c0.5,0.8,1.2,1.5,2,2c0.9,0.5,1.9,0.7,3.1,0.7c0.6,0,1.1-0.1,1.7-0.3
		c0.6-0.2,1.1-0.4,1.5-0.8c0.5-0.3,0.8-0.8,1.1-1.3s0.4-1.1,0.4-1.7c0-0.8-0.2-1.4-0.5-2c-0.3-0.5-0.8-1-1.3-1.3s-1.2-0.6-1.8-0.9
		s-1.4-0.5-2.1-0.7c-0.7-0.2-1.4-0.5-2.1-0.8c-0.7-0.3-1.3-0.7-1.8-1.1c-0.5-0.5-1-1-1.3-1.7s-0.5-1.5-0.5-2.6s0.2-2,0.6-2.8
		c0.4-0.8,1-1.5,1.6-2c0.7-0.5,1.5-0.9,2.3-1.2c0.9-0.3,1.8-0.4,2.7-0.4c1.3,0,2.4,0.2,3.5,0.6c1,0.4,2,1.1,2.9,2.1L247.6,153.8z"/>
	<path class="st0" d="M278.6,172.5h-2.3v-20.4h-7.5V150h17.3v2.1h-7.5V172.5z"/>
	<path class="st0" d="M308.7,170.4h12v2.1h-14.3V150h13.9v2.1h-11.6v7.6h10.9v2.1h-10.9V170.4z"/>
	<path class="st0" d="M353.1,168.3l7.6-18.3h3.5v22.5h-2.3v-19.4h-0.1l-8.1,19.4h-1.2l-8.1-19.4h-0.1v19.4H342V150h3.5L353.1,168.3z
		"/>
</g>
</svg>
