<?xml version="1.0" encoding="utf-8"?>
<!-- Generator: Adobe Illustrator 19.1.0, SVG Export Plug-In . SVG Version: 6.00 Build 0)  -->
<svg version="1.1" id="Layer_1" xmlns="http://www.w3.org/2000/svg" xmlns:xlink="http://www.w3.org/1999/xlink" x="0px" y="0px"
	 viewBox="0 0 510.2 236.3" style="enable-background:new 0 0 510.2 236.3;" xml:space="preserve">
<style type="text/css">
	.st0{clip-path:url(#SVGID_2_);fill:#00AEEF;}
	.st1{clip-path:url(#SVGID_2_);fill:#324A9C;}
	.st2{clip-path:url(#SVGID_2_);}
	.st3{fill:#324A9C;}
	.st4{font-family:'Tahoma';}
	.st5{font-size:37.433px;}
</style>
<g>
	<defs>
		<rect id="SVGID_1_" y="0.4" width="508.6" height="235.4"/>
	</defs>
	<clipPath id="SVGID_2_">
		<use xlink:href="#SVGID_1_"  style="overflow:visible;"/>
	</clipPath>
	<path class="st0" d="M347.6,1.8H75.3c0,0-69.9,13.5-45,81.8c0,0,11.4,23.7,43,28.9c31.6,5.2,40.5-0.7,43.4,11.5
		c4.9,20.2-20.5,16.6-29.5,16.6c-17.6-0.1-63.7,0-63.7,0l-16.1,44h96.8c0,0,56-4.2,58-60.1c-7.4-49-51.9-53.3-70.5-54.2
		c-34.9,2.2-29-27.8-3-25.6c25.2,0.3,215.9,0,215.9,0v86.1c0,0,21.4,54.3,84.7,54.3c81.3,0,81.3-74,81.3-74L470.2,1.3h-44.5
		c0,0,0,94.4-0.5,105.3c-0.5,10.9-5.5,32.5-38.5,34.2c-33-1.7-38-23.3-38.5-34.2C347.6,95.7,347.6,1.8,347.6,1.8"/>
	<path class="st1" d="M276.2,46l14.3-43.8c0,0-83.4-14.8-117.3,38.8C137.4,97.9,168,153.5,202,170.3c28.7,14.2,43.7,14.6,43.7,14.6
		h101.2c0,0,9.7-52.7-19.4-82.5c-27.8-28.5-46.3-28.8-62.7-32.9c-3.7,17.9-8.6,42.2-8.6,42.2s28.4-1.5,45.6,29.5
		c-26.9,0.4-57.2,3.7-75.8-7.1c-14.1-8.2-26.6-20.4-24.7-41.8C206.5,34.4,276.2,46,276.2,46"/>
	<g class="st2">
		<text transform="matrix(1 0 0 1 475.4463 32.3242)" class="st3 st4 st5">®</text>
	</g>
	<g class="st2">
		<path class="st3" d="M19.4,228.9c0,2.4-0.6,4.2-1.9,5.4c-1.5,1.3-4,2-7.5,2c-3.3,0-5.8-0.8-7.3-2.4c-1.2-1.2-1.7-2.6-1.7-4.3v-8.4
			h7.3v8.5c0,0.4,0.2,0.7,0.5,0.9c0.3,0.2,0.7,0.3,1.1,0.3c0.5,0,0.9-0.1,1.1-0.3c0.3-0.2,0.4-0.5,0.4-1v-4.4c0-1-0.2-1.8-0.7-2.4
			c-1.2-1.3-2.6-2.7-4-4.2c-2.3-2.5-3.6-3.9-3.9-4.2c-1.2-1.6-1.9-3.1-1.9-4.4v-4.2c0-2.4,0.7-4.1,2-5.2c1.5-1.3,4-2,7.4-2
			c2.9,0,5.1,0.7,6.5,2c1.2,1.1,1.8,2.7,1.8,4.6v6.4h-7.3v-6.8c0-0.4-0.1-0.6-0.4-0.8c-0.2-0.2-0.5-0.3-0.9-0.3
			c-0.4,0-0.8,0.1-1,0.3c-0.2,0.2-0.3,0.5-0.3,0.8v3.4c0,1.2,0.5,2.4,1.6,3.5c1.5,1.5,2.9,2.9,4.2,4.3c1.7,1.8,2.8,3,3.3,3.7
			c1,1.4,1.5,3,1.5,4.5V228.9z"/>
		<path class="st3" d="M54.6,198.9l-4.8,36.9h-9.6l-2.9-20.3l-2.7,20.3h-8.3l-4.6-36.9H29l2,17l2.8-17H43l2.2,17l2.7-17H54.6z"/>
		<path class="st3" d="M65,235.9h-8.1v-36.9H65V235.9z"/>
		<path class="st3" d="M86.2,228.9c0,2.4-0.6,4.2-1.9,5.4c-1.5,1.3-4,2-7.5,2c-3.3,0-5.8-0.8-7.3-2.4c-1.2-1.2-1.7-2.6-1.7-4.3v-8.4
			h7.3v8.5c0,0.4,0.2,0.7,0.5,0.9c0.3,0.2,0.7,0.3,1.1,0.3c0.5,0,0.9-0.1,1.1-0.3c0.3-0.2,0.4-0.5,0.4-1v-4.4c0-1-0.2-1.8-0.7-2.4
			c-1.2-1.3-2.6-2.7-4-4.2c-2.3-2.5-3.6-3.9-3.9-4.2c-1.2-1.6-1.9-3.1-1.9-4.4v-4.2c0-2.4,0.7-4.1,2-5.2c1.5-1.3,4-2,7.4-2
			c2.9,0,5.1,0.7,6.5,2c1.2,1.1,1.8,2.7,1.8,4.6v6.4h-7.3v-6.8c0-0.4-0.1-0.6-0.4-0.8c-0.2-0.2-0.5-0.3-0.9-0.3
			c-0.4,0-0.8,0.1-1,0.3c-0.2,0.2-0.3,0.5-0.3,0.8v3.4c0,1.2,0.5,2.4,1.6,3.5c1.5,1.5,2.9,2.9,4.2,4.3c1.7,1.8,2.8,3,3.3,3.7
			c1,1.4,1.5,3,1.5,4.5V228.9z"/>
		<path class="st3" d="M107.8,228.9c0,2.4-0.6,4.2-1.9,5.4c-1.5,1.3-4,2-7.5,2c-3.3,0-5.8-0.8-7.3-2.4c-1.2-1.2-1.7-2.6-1.7-4.3
			v-8.4h7.3v8.5c0,0.4,0.2,0.7,0.5,0.9c0.3,0.2,0.7,0.3,1.1,0.3c0.5,0,0.9-0.1,1.1-0.3c0.3-0.2,0.4-0.5,0.4-1v-4.4
			c0-1-0.2-1.8-0.7-2.4c-1.2-1.3-2.6-2.7-4-4.2c-2.3-2.5-3.6-3.9-3.9-4.2c-1.2-1.6-1.9-3.1-1.9-4.4v-4.2c0-2.4,0.7-4.1,2-5.2
			c1.5-1.3,4-2,7.4-2c2.9,0,5.1,0.7,6.5,2c1.2,1.1,1.8,2.7,1.8,4.6v6.4h-7.3v-6.8c0-0.4-0.1-0.6-0.4-0.8c-0.2-0.2-0.5-0.3-0.9-0.3
			c-0.4,0-0.8,0.1-1,0.3c-0.2,0.2-0.3,0.5-0.3,0.8v3.4c0,1.2,0.5,2.4,1.6,3.5c1.5,1.5,2.9,2.9,4.2,4.3c1.7,1.8,2.8,3,3.3,3.7
			c1,1.4,1.5,3,1.5,4.5V228.9z"/>
		<path class="st3" d="M139.3,235.9h-3.9l-1.1-2c-0.9,0.8-1.6,1.3-2.2,1.6c-1,0.5-2.2,0.8-3.5,0.8c-2,0-3.7-0.5-5-1.4
			c-1.5-1.1-2.3-2.8-2.3-4.9v-24.1c0-2.4,0.6-4.1,1.9-5.2c1.5-1.3,3.9-2,7.3-2c3,0,5.2,0.7,6.7,2c1.3,1.2,2,2.7,2,4.6v6.9H132v-7.5
			c0-0.3-0.1-0.5-0.3-0.7s-0.5-0.2-0.9-0.2c-0.4,0-0.7,0.1-0.9,0.2c-0.2,0.1-0.3,0.4-0.3,0.7v25.7c0,0.3,0.1,0.5,0.4,0.7
			c0.2,0.2,0.5,0.2,0.9,0.2c0.3,0,0.6-0.1,0.9-0.2c0.3-0.1,0.4-0.4,0.4-0.7v-7h-1.7v-5.6h9.1V235.9z"/>
		<path class="st3" d="M158.1,235.9h-15.9v-36.9H158v4.7h-7.7v10h7v4.5h-7v13h7.8V235.9z"/>
		<path class="st3" d="M180.7,235.9h-8.1c-0.5-0.5-0.8-1.3-0.9-2.3c-0.2-1-0.3-2.5-0.3-4.4V220c0-0.9-0.2-1.5-0.7-1.7
			c-0.5-0.2-1.1-0.3-1.9-0.3v17.8h-8.1v-36.9h10c2.7,0,4.8,0.6,6.2,1.8c1.5,1.2,2.2,2.8,2.2,4.7v4.4c0,1.2-0.2,2.2-0.6,2.8
			c-0.7,1.2-2.2,2.2-4.4,2.9c2.1,0.5,3.5,1.4,4.2,2.5c0.5,0.7,0.7,1.8,0.7,3.1v8c0.1,1.3,0.1,2.3,0.2,3
			C179.8,234.2,180.2,235.4,180.7,235.9z M171.4,211.6v-6c0-0.9-0.2-1.5-0.7-1.7c-0.5-0.2-1.1-0.3-1.9-0.3v9.9
			c0.8,0,1.4-0.1,1.6-0.2C171.1,213.1,171.4,212.5,171.4,211.6z"/>
		<path class="st3" d="M211.4,235.9h-7.3v-20.7l-4.2,20.7h-5.6l-4.8-20.7v20.7h-6.4v-36.9h10.5l3.7,19.1l3.3-19.1h10.8V235.9z"/>
		<path class="st3" d="M236.4,235.9h-8l-1.4-9.9h-3.7l-1.4,9.9h-8l6.1-36.9h10.3L236.4,235.9z M226.4,220.9l-1.2-11.1l-1.1,11.1
			H226.4z"/>
		<path class="st3" d="M259.6,235.9h-8.3l-5.5-19.7v19.7H239v-36.9h9.2l4.6,16.8v-16.8h6.7V235.9z"/>
		<path class="st3" d="M292.3,229.6c0,2.1-0.9,3.8-2.7,5c-1.8,1.2-4,1.7-6.8,1.7s-5-0.5-6.7-1.6c-1.9-1.2-2.8-2.9-2.8-5v-30.7h8.1
			v31.1c0,0.4,0.1,0.6,0.4,0.8c0.2,0.2,0.6,0.3,1.1,0.3s0.8-0.1,1-0.3c0.2-0.2,0.3-0.5,0.3-0.8v-31.1h8.1V229.6z"/>
		<path class="st3" d="M315.9,235.9h-8.3l-5.5-19.7v19.7h-6.7v-36.9h9.2l4.6,16.8v-16.8h6.7V235.9z"/>
		<path class="st3" d="M327.1,235.9H319v-36.9h8.1V235.9z"/>
		<path class="st3" d="M350.6,198.9l-5,36.9h-11.5l-5-36.9h7.9l2.9,25.8l2.9-25.8H350.6z"/>
		<path class="st3" d="M368.8,235.9h-15.9v-36.9h15.8v4.7H361v10h7v4.5h-7v13h7.8V235.9z"/>
		<path class="st3" d="M391.4,235.9h-8.1c-0.5-0.5-0.8-1.3-0.9-2.3c-0.2-1-0.3-2.5-0.3-4.4V220c0-0.9-0.2-1.5-0.7-1.7
			c-0.5-0.2-1.1-0.3-1.9-0.3v17.8h-8.1v-36.9h10c2.7,0,4.8,0.6,6.2,1.8c1.5,1.2,2.2,2.8,2.2,4.7v4.4c0,1.2-0.2,2.2-0.6,2.8
			c-0.7,1.2-2.2,2.2-4.4,2.9c2.1,0.5,3.5,1.4,4.2,2.5c0.5,0.7,0.7,1.8,0.7,3.1v8c0.1,1.3,0.1,2.3,0.2,3
			C390.4,234.2,390.8,235.4,391.4,235.9z M382.1,211.6v-6c0-0.9-0.2-1.5-0.7-1.7c-0.5-0.2-1.1-0.3-1.9-0.3v9.9
			c0.8,0,1.4-0.1,1.6-0.2C381.8,213.1,382.1,212.5,382.1,211.6z"/>
		<path class="st3" d="M412.3,228.9c0,2.4-0.6,4.2-1.9,5.4c-1.5,1.3-4,2-7.5,2c-3.3,0-5.8-0.8-7.3-2.4c-1.2-1.2-1.7-2.6-1.7-4.3
			v-8.4h7.3v8.5c0,0.4,0.2,0.7,0.5,0.9c0.3,0.2,0.7,0.3,1.1,0.3c0.5,0,0.9-0.1,1.1-0.3c0.3-0.2,0.4-0.5,0.4-1v-4.4
			c0-1-0.2-1.8-0.7-2.4c-1.2-1.3-2.6-2.7-4-4.2c-2.3-2.5-3.6-3.9-3.9-4.2c-1.2-1.6-1.9-3.1-1.9-4.4v-4.2c0-2.4,0.7-4.1,2-5.2
			c1.5-1.3,4-2,7.4-2c2.9,0,5.1,0.7,6.5,2c1.2,1.1,1.8,2.7,1.8,4.6v6.4h-7.3v-6.8c0-0.4-0.1-0.6-0.4-0.8c-0.2-0.2-0.5-0.3-0.9-0.3
			c-0.4,0-0.8,0.1-1,0.3s-0.3,0.5-0.3,0.8v3.4c0,1.2,0.5,2.4,1.6,3.5c1.5,1.5,2.9,2.9,4.2,4.3c1.7,1.8,2.8,3,3.3,3.7
			c1,1.4,1.5,3,1.5,4.5V228.9z"/>
		<path class="st3" d="M423.4,235.9h-8.1v-36.9h8.1V235.9z"/>
		<path class="st3" d="M443.1,203.7h-4.5v32.2h-8.1v-32.2H426v-4.7h17.1V203.7z"/>
		<path class="st3" d="M468,198.9l-8,22.3v14.6H452v-14.7l-6.7-22.2h7.8l3.6,13.1l4.1-13.1H468z"/>
	</g>
</g>
</svg>
